<svg xmlns="http://www.w3.org/2000/svg" style="display:none">
  <symbol id="home" viewBox="0 0 24 24" fill="none" stroke="currentColor" stroke-width="1.8" stroke-linecap="round" stroke-linejoin="round">
    <path d="M4 10.5 12 4l8 6.5" />
    <path d="M6.5 9.5V20h11V9.5" />
    <path d="M10 20v-5h4v5" />
  </symbol>
  <symbol id="appeals" viewBox="0 0 24 24" fill="none" stroke="currentColor" stroke-width="1.8" stroke-linecap="round" stroke-linejoin="round">
    <rect x="5" y="4" width="14" height="16" rx="3" />
    <path d="M9 9h6M9 13h6M9 17h4" />
  </symbol>
  <symbol id="analytics" viewBox="0 0 24 24" fill="none" stroke="currentColor" stroke-width="1.8" stroke-linecap="round" stroke-linejoin="round">
    <path d="M5 19V6" />
    <path d="M5 19h14" />
    <path d="M8.5 15.5 11 12l3 2.5 4-6" />
    <circle cx="8.5" cy="15.5" r="1" fill="currentColor" stroke="none" />
    <circle cx="11" cy="12" r="1" fill="currentColor" stroke="none" />
    <circle cx="14" cy="14.5" r="1" fill="currentColor" stroke="none" />
    <circle cx="18" cy="8.5" r="1" fill="currentColor" stroke="none" />
  </symbol>
  <symbol id="map" viewBox="0 0 24 24" fill="none" stroke="currentColor" stroke-width="1.8" stroke-linecap="round" stroke-linejoin="round">
    <path d="M4 6.5 9 4l6 2 5-2v13.5L15 20l-6-2-5 2z" />
    <path d="M9 4v14M15 6v14" />
  </symbol>
  <symbol id="categories" viewBox="0 0 24 24" fill="none" stroke="currentColor" stroke-width="1.8" stroke-linecap="round" stroke-linejoin="round">
    <rect x="4" y="4" width="7" height="7" rx="2" />
    <rect x="13" y="4" width="7" height="7" rx="2" />
    <rect x="4" y="13" width="7" height="7" rx="2" />
    <rect x="13" y="13" width="7" height="7" rx="2" />
  </symbol>
  <symbol id="chat" viewBox="0 0 24 24" fill="none" stroke="currentColor" stroke-width="1.8" stroke-linecap="round" stroke-linejoin="round">
    <path d="M6 6h12a2 2 0 0 1 2 2v7a2 2 0 0 1-2 2H11l-4 3v-3H6a2 2 0 0 1-2-2V8a2 2 0 0 1 2-2Z" />
    <path d="M9 11h6M9 14h4" />
  </symbol>
  <symbol id="reports" viewBox="0 0 24 24" fill="none" stroke="currentColor" stroke-width="1.8" stroke-linecap="round" stroke-linejoin="round">
    <path d="M8 4h6l4 4v12H8a2 2 0 0 1-2-2V6a2 2 0 0 1 2-2Z" />
    <path d="M14 4v4h4M9 12h6M9 16h6" />
  </symbol>
  <symbol id="spark" viewBox="0 0 24 24" fill="none" stroke="currentColor" stroke-width="1.8" stroke-linecap="round" stroke-linejoin="round">
    <path d="m12 3 1.8 4.2L18 9l-4.2 1.8L12 15l-1.8-4.2L6 9l4.2-1.8z" />
    <path d="m18.5 15.5.9 2.1 2.1.9-2.1.9-.9 2.1-.9-2.1-2.1-.9 2.1-.9zM5.5 15.5l.7 1.7 1.7.7-1.7.7-.7 1.7-.7-1.7-1.7-.7 1.7-.7z" />
  </symbol>
</svg>
